<?xml version="1.0" encoding="UTF-8" standalone="no"?>
<svg
   xmlns:dc="http://purl.org/dc/elements/1.1/"
   xmlns:cc="http://creativecommons.org/ns#"
   xmlns:rdf="http://www.w3.org/1999/02/22-rdf-syntax-ns#"
   xmlns:svg="http://www.w3.org/2000/svg"
   xmlns="http://www.w3.org/2000/svg"
   xmlns:sodipodi="http://sodipodi.sourceforge.net/DTD/sodipodi-0.dtd"
   xmlns:inkscape="http://www.inkscape.org/namespaces/inkscape"
   version="1.1"
   id="Layer_1"
   x="0"
   y="0"
   viewBox="0 0 121.401 85"
   xml:space="preserve"
   sodipodi:docname="youtube_logo_wikipedia_CC0.svg"
   inkscape:version="0.92.1 r15371"
   width="121.401"
   height="85"
   inkscape:export-filename="/home/bnc/Dropbox/web_in_GAE/christianbaun.github.io/BSRN20/Bilder/youtube_logo_wikipedia_CC0.svg.png"
   inkscape:export-xdpi="28.235294"
   inkscape:export-ydpi="28.235294"><metadata
     id="metadata19"><rdf:RDF><cc:Work
         rdf:about=""><dc:format>image/svg+xml</dc:format><dc:type
           rdf:resource="http://purl.org/dc/dcmitype/StillImage" /><dc:title></dc:title></cc:Work></rdf:RDF></metadata><defs
     id="defs17" /><sodipodi:namedview
     pagecolor="#ffffff"
     bordercolor="#666666"
     borderopacity="1"
     objecttolerance="10"
     gridtolerance="10"
     guidetolerance="10"
     inkscape:pageopacity="0"
     inkscape:pageshadow="2"
     inkscape:window-width="1587"
     inkscape:window-height="832"
     id="namedview15"
     showgrid="false"
     inkscape:zoom="2.9702569"
     inkscape:cx="201.34864"
     inkscape:cy="68.967512"
     inkscape:window-x="91"
     inkscape:window-y="0"
     inkscape:window-maximized="0"
     inkscape:current-layer="Layer_1" /><style
     id="style2">.st2{fill:#282828}</style><path
     d="M 118.9,13.3 C 117.5,8.1 113.4,4 108.2,2.6 98.7,0 60.7,0 60.7,0 60.7,0 22.7,0 13.2,2.5 8.1,3.9 3.9,8.1 2.5,13.3 0,22.8 0,42.5 0,42.5 0,42.5 0,62.3 2.5,71.7 3.9,76.9 8,81 13.2,82.4 22.8,85 60.7,85 60.7,85 c 0,0 38,0 47.5,-2.5 5.2,-1.4 9.3,-5.5 10.7,-10.7 2.5,-9.5 2.5,-29.2 2.5,-29.2 0,0 0.1,-19.8 -2.5,-29.3 z"
     id="path4"
     inkscape:export-xdpi="28.235294"
     inkscape:export-ydpi="28.235294"
     inkscape:connector-curvature="0"
     style="fill:#ff0000" /><path
     d="M 48.6,60.7 80.2,42.5 48.6,24.3 Z"
     id="path6"
     inkscape:export-xdpi="28.235294"
     inkscape:export-ydpi="28.235294"
     inkscape:connector-curvature="0"
     style="fill:#ffffff" /></svg>